<svg width="71" height="70" viewBox="0 0 71 70" fill="none" xmlns="http://www.w3.org/2000/svg">
<g id="material-symbols-light:add-photo-alternate-outline">
<path id="Vector" d="M15.7541 58.3334C14.4591 58.3334 13.3508 57.8716 12.4291 56.948C11.5055 56.0263 11.0437 54.918 11.0437 53.623V16.3771C11.0437 15.0821 11.5055 13.9738 12.4291 13.0521C13.3508 12.1285 14.4591 11.6667 15.7541 11.6667H40.2104V14.5834H15.757C15.232 14.5834 14.8013 14.7516 14.465 15.088C14.1286 15.4244 13.9604 15.8541 13.9604 16.3771V53.623C13.9604 54.146 14.1286 54.5758 14.465 54.9122C14.8033 55.2485 15.234 55.4167 15.757 55.4167H53C53.525 55.4167 53.9547 55.2485 54.2891 54.9122C54.6236 54.5758 54.7918 54.146 54.7937 53.623V29.1667H57.7104V53.623C57.7104 54.918 57.2495 56.0263 56.3279 56.948C55.4043 57.8716 54.295 58.3334 53 58.3334H15.7541ZM51.2091 24.0042V18.1709H45.3758V15.2542H51.2091V9.4209H54.1258V15.2542H59.9591V18.1709H54.1258V24.0042H51.2091ZM21.252 48.1251H47.9512L39.7058 37.1292L32.0787 46.7776L26.9745 40.6088L21.252 48.1251Z" fill="#607087"/>
</g>
</svg>
