<svg width="24" height="24" viewBox="0 0 24 24" fill="none" xmlns="http://www.w3.org/2000/svg">
<path d="M17.9962 21.8297C16.8328 22.9576 15.5624 22.7795 14.3396 22.2452C13.0455 21.6991 11.8583 21.6754 10.493 22.2452C8.78336 22.9813 7.88107 22.7676 6.86005 21.8297C1.06639 15.858 1.92119 6.76382 8.49842 6.4314C10.1012 6.5145 11.2172 7.30994 12.1551 7.38118C13.556 7.09624 14.8976 6.27706 16.3935 6.38391C18.1862 6.52638 19.5396 7.23871 20.43 8.52092C16.7259 10.741 17.6044 15.6205 20.9999 16.9858C20.3232 18.7667 19.4446 20.5356 17.9844 21.8416L17.9962 21.8297ZM12.0364 6.36016C11.8583 3.71265 14.0072 1.52815 16.4766 1.31445C16.8209 4.3775 13.6985 6.65697 12.0364 6.36016Z" fill="black"/>
</svg>
