<svg width="30" height="30" viewBox="0 0 30 30" fill="none" xmlns="http://www.w3.org/2000/svg">
<rect width="30" height="30" rx="6" fill="#F8F9FD"/>
<path d="M10.2812 15.0312H19.6562C19.7806 15.0312 19.8998 15.0806 19.9877 15.1685C20.0756 15.2565 20.125 15.3757 20.125 15.5C20.125 15.6243 20.0756 15.7435 19.9877 15.8315C19.8998 15.9194 19.7806 15.9688 19.6562 15.9688H10.2812C10.1569 15.9688 10.0377 15.9194 9.94979 15.8315C9.86189 15.7435 9.8125 15.6243 9.8125 15.5C9.8125 15.3757 9.86189 15.2565 9.94979 15.1685C10.0377 15.0806 10.1569 15.0312 10.2812 15.0312Z" fill="#181817"/>
<path d="M10.4752 15.4996L14.363 19.3865C14.451 19.4745 14.5005 19.5939 14.5005 19.7184C14.5005 19.8428 14.451 19.9622 14.363 20.0502C14.275 20.1383 14.1556 20.1877 14.0311 20.1877C13.9066 20.1877 13.7873 20.1383 13.6992 20.0502L9.48049 15.8315C9.43683 15.7879 9.4022 15.7362 9.37857 15.6793C9.35494 15.6223 9.34277 15.5613 9.34277 15.4996C9.34277 15.438 9.35494 15.3769 9.37857 15.32C9.4022 15.263 9.43683 15.2113 9.48049 15.1677L13.6992 10.949C13.7873 10.861 13.9066 10.8115 14.0311 10.8115C14.1556 10.8115 14.275 10.861 14.363 10.949C14.451 11.037 14.5005 11.1564 14.5005 11.2809C14.5005 11.4053 14.451 11.5247 14.363 11.6127L10.4752 15.4996Z" fill="#181817"/>
</svg>
