<svg width="15" height="15" viewBox="0 0 15 15" fill="none" xmlns="http://www.w3.org/2000/svg">
<g id="solar:bath-linear" clip-path="url(#clip0_474_4180)">
<g id="Group">
<path id="Vector" d="M1.875 8.17688C1.875 8.12875 1.875 8.10438 1.87625 8.08438C1.8861 7.93295 1.95069 7.79029 2.05799 7.68299C2.16529 7.57569 2.30795 7.5111 2.45937 7.50125C2.48 7.5 2.50313 7.5 2.55188 7.5H12.4481C12.4962 7.5 12.52 7.5 12.5406 7.50125C12.692 7.5111 12.8347 7.57569 12.942 7.68299C13.0493 7.79029 13.1139 7.93295 13.1237 8.08438C13.125 8.10438 13.125 8.12813 13.125 8.17688C13.125 8.42375 13.125 8.5475 13.1163 8.68625C12.9856 10.7406 11.2394 12.5544 9.19125 12.7612C9.05313 12.7756 8.9725 12.7787 8.81125 12.785C8.37437 12.8022 7.93722 12.8114 7.5 12.8125C7.09375 12.8125 6.6475 12.8019 6.18875 12.785C6.0275 12.7787 5.94688 12.7756 5.80938 12.7619C3.76062 12.5544 2.01438 10.7406 1.88438 8.68625C1.875 8.5475 1.875 8.42375 1.875 8.17688Z" stroke="#607087"/>
<path id="Vector_2" d="M3.75 12.5L3.125 13.75M11.25 12.5L11.875 13.75M1.25 7.5H13.75" stroke="#607087" stroke-linecap="round"/>
<path id="Vector_3" d="M1.40625 8.125C1.40625 8.24932 1.45564 8.36855 1.54354 8.45646C1.63145 8.54436 1.75068 8.59375 1.875 8.59375C1.99932 8.59375 2.11855 8.54436 2.20646 8.45646C2.29436 8.36855 2.34375 8.24932 2.34375 8.125H1.40625ZM3.96625 5.46375L3.53 5.63562C3.55308 5.69396 3.58763 5.74707 3.63161 5.79181C3.67559 5.83655 3.7281 5.87201 3.78603 5.89608C3.84397 5.92015 3.90614 5.93235 3.96888 5.93195C4.03161 5.93155 4.09363 5.91856 4.15125 5.89375L3.96625 5.46375ZM7.69125 3.85938L7.87687 4.29062C7.98874 4.24244 8.07746 4.15261 8.12424 4.04015C8.17102 3.92769 8.17219 3.80143 8.1275 3.68813L7.69125 3.85938ZM2.34375 8.125V2.74063H1.40625V8.125H2.34375ZM3.36563 1.71875C3.78375 1.71875 4.15937 1.97313 4.31437 2.36125L5.185 2.0125C5.03962 1.64895 4.78867 1.33792 4.46449 1.11835C4.14031 0.898775 3.75779 0.781362 3.36625 0.78125L3.36563 1.71875ZM2.34375 2.74063C2.34375 2.17625 2.80125 1.71875 3.36563 1.71875L3.36625 0.78125C2.84659 0.78125 2.34759 0.987684 1.98014 1.35514C1.61268 1.72259 1.40625 2.22097 1.40625 2.74063H2.34375ZM4.31437 2.36125L4.55188 2.95375L5.42188 2.60563L5.185 2.0125L4.31437 2.36125ZM4.40188 5.29187C4.24465 4.89118 4.24779 4.44532 4.41062 4.04688L3.54187 3.69375C3.28829 4.31538 3.28444 5.01078 3.53 5.63562L4.40188 5.29187ZM7.50625 3.42937L3.78062 5.03313L4.15125 5.89375L7.87625 4.29L7.50625 3.42937ZM6.42625 3.1675C6.815 3.33375 7.10438 3.64812 7.25563 4.03125L8.1275 3.68813C8.00829 3.38077 7.82906 3.0996 7.60029 2.86224C7.37151 2.62488 7.09776 2.43545 6.795 2.305L6.42625 3.1675ZM4.41062 4.04688C4.55722 3.67776 4.83562 3.37682 5.19187 3.20125L4.78188 2.35875C4.2177 2.63513 3.77594 3.11074 3.54187 3.69375L4.41062 4.04688ZM5.19187 3.20125C5.38302 3.1069 5.59234 3.05508 5.80543 3.04936C6.01852 3.04364 6.23032 3.08354 6.42625 3.1675L6.795 2.305C6.47541 2.16835 6.13008 2.10298 5.78263 2.11215C5.43518 2.12132 5.09381 2.20544 4.78188 2.35875L5.19187 3.20125Z" fill="#607087"/>
</g>
</g>
<defs>
<clipPath id="clip0_474_4180">
<rect width="15" height="15" fill="white"/>
</clipPath>
</defs>
</svg>
