<svg width="24" height="24" viewBox="0 0 24 24" fill="none" xmlns="http://www.w3.org/2000/svg">
<g id="ph:buildings-thin">
<path id="Vector" d="M22.5 19.8747H20.625V8.99972C20.625 8.70135 20.5065 8.4152 20.2955 8.20422C20.0845 7.99324 19.7984 7.87472 19.5 7.87472H13.125V2.99972C13.1253 2.79592 13.0702 2.59586 12.9657 2.42092C12.8611 2.24598 12.711 2.10273 12.5314 2.00646C12.3518 1.9102 12.1494 1.86453 11.9458 1.87435C11.7422 1.88417 11.5452 1.94911 11.3756 2.06222L3.87563 7.0619C3.72138 7.16481 3.59497 7.30425 3.50763 7.46781C3.42029 7.63137 3.37473 7.81398 3.375 7.9994V19.8747H1.5C1.40054 19.8747 1.30516 19.9142 1.23483 19.9846C1.16451 20.0549 1.125 20.1503 1.125 20.2497C1.125 20.3492 1.16451 20.4446 1.23483 20.5149C1.30516 20.5852 1.40054 20.6247 1.5 20.6247H22.5C22.5995 20.6247 22.6948 20.5852 22.7652 20.5149C22.8355 20.4446 22.875 20.3492 22.875 20.2497C22.875 20.1503 22.8355 20.0549 22.7652 19.9846C22.6948 19.9142 22.5995 19.8747 22.5 19.8747ZM19.5 8.62472C19.5995 8.62472 19.6948 8.66422 19.7652 8.73455C19.8355 8.80488 19.875 8.90026 19.875 8.99972V19.8747H13.125V8.62472H19.5ZM4.125 8.00034C4.12481 7.93843 4.13994 7.87743 4.16906 7.82279C4.19818 7.76816 4.24037 7.72158 4.29187 7.68722L11.7919 2.68753C11.8484 2.64984 11.914 2.6282 11.9819 2.62491C12.0497 2.62163 12.1171 2.63682 12.177 2.66887C12.2369 2.70092 12.2869 2.74863 12.3218 2.8069C12.3566 2.86516 12.375 2.93181 12.375 2.99972V19.8747H4.125V8.00034ZM10.125 10.4997V11.9997C10.125 12.0992 10.0855 12.1946 10.0152 12.2649C9.94484 12.3352 9.84946 12.3747 9.75 12.3747C9.65054 12.3747 9.55516 12.3352 9.48483 12.2649C9.41451 12.1946 9.375 12.0992 9.375 11.9997V10.4997C9.375 10.4003 9.41451 10.3049 9.48483 10.2346C9.55516 10.1642 9.65054 10.1247 9.75 10.1247C9.84946 10.1247 9.94484 10.1642 10.0152 10.2346C10.0855 10.3049 10.125 10.4003 10.125 10.4997ZM7.125 10.4997V11.9997C7.125 12.0992 7.08549 12.1946 7.01517 12.2649C6.94484 12.3352 6.84946 12.3747 6.75 12.3747C6.65054 12.3747 6.55516 12.3352 6.48483 12.2649C6.41451 12.1946 6.375 12.0992 6.375 11.9997V10.4997C6.375 10.4003 6.41451 10.3049 6.48483 10.2346C6.55516 10.1642 6.65054 10.1247 6.75 10.1247C6.84946 10.1247 6.94484 10.1642 7.01517 10.2346C7.08549 10.3049 7.125 10.4003 7.125 10.4997ZM7.125 15.7497V17.2497C7.125 17.3492 7.08549 17.4446 7.01517 17.5149C6.94484 17.5852 6.84946 17.6247 6.75 17.6247C6.65054 17.6247 6.55516 17.5852 6.48483 17.5149C6.41451 17.4446 6.375 17.3492 6.375 17.2497V15.7497C6.375 15.6503 6.41451 15.5549 6.48483 15.4846C6.55516 15.4142 6.65054 15.3747 6.75 15.3747C6.84946 15.3747 6.94484 15.4142 7.01517 15.4846C7.08549 15.5549 7.125 15.6503 7.125 15.7497ZM10.125 15.7497V17.2497C10.125 17.3492 10.0855 17.4446 10.0152 17.5149C9.94484 17.5852 9.84946 17.6247 9.75 17.6247C9.65054 17.6247 9.55516 17.5852 9.48483 17.5149C9.41451 17.4446 9.375 17.3492 9.375 17.2497V15.7497C9.375 15.6503 9.41451 15.5549 9.48483 15.4846C9.55516 15.4142 9.65054 15.3747 9.75 15.3747C9.84946 15.3747 9.94484 15.4142 10.0152 15.4846C10.0855 15.5549 10.125 15.6503 10.125 15.7497Z" fill="url(#paint0_linear_155_4611)"/>
</g>
<defs>
<linearGradient id="paint0_linear_155_4611" x1="-5.07375" y1="6.46721" x2="21.5797" y2="18.9777" gradientUnits="userSpaceOnUse">
<stop stop-color="#3456A3"/>
<stop offset="1" stop-color="#182848"/>
</linearGradient>
</defs>
</svg>
