<svg width="25" height="24" viewBox="0 0 25 24" fill="none" xmlns="http://www.w3.org/2000/svg">
<path d="M12.5 14.273C14.3075 14.273 15.7727 12.8077 15.7727 11.0003C15.7727 9.19279 14.3075 7.72754 12.5 7.72754C10.6925 7.72754 9.22729 9.19279 9.22729 11.0003C9.22729 12.8077 10.6925 14.273 12.5 14.273Z" stroke="#607087" stroke-width="0.8"/>
<path d="M17.4091 13.4552C18.7648 13.4552 19.8636 12.5388 19.8636 11.4097C19.8636 10.2806 18.7648 9.36426 17.4091 9.36426M7.5909 13.4552C6.23517 13.4552 5.13635 12.5388 5.13635 11.4097C5.13635 10.2806 6.23517 9.36426 7.5909 9.36426" stroke="#607087" stroke-width="0.8" stroke-linecap="round"/>
<path d="M12.5 23.273C15.2112 23.273 17.4091 21.8077 17.4091 20.0003C17.4091 18.1928 15.2112 16.7275 12.5 16.7275C9.78876 16.7275 7.59088 18.1928 7.59088 20.0003C7.59088 21.8077 9.78876 23.273 12.5 23.273Z" stroke="#607087" stroke-width="0.8"/>
<path d="M19.0455 21.6368C20.4805 21.3218 21.5 20.5249 21.5 19.5914C21.5 18.6578 20.4805 17.8609 19.0455 17.5459M5.95455 21.6368C4.51945 21.3218 3.5 20.5249 3.5 19.5914C3.5 18.6578 4.51945 17.8609 5.95455 17.5459" stroke="#607087" stroke-width="0.8" stroke-linecap="round"/>
</svg>
