<svg width="15" height="15" viewBox="0 0 15 15" fill="none" xmlns="http://www.w3.org/2000/svg">
<g id="fluent:couch-20-regular">
<path id="Vector" d="M3.83366 2C3.34743 2 2.88111 2.19315 2.5373 2.53697C2.19348 2.88079 2.00033 3.3471 2.00033 3.83333V4.79583C1.4827 4.90149 1.01748 5.18275 0.683394 5.592C0.34931 6.00126 0.166884 6.51337 0.166992 7.04167V9.33333C0.166992 9.81956 0.360146 10.2859 0.703963 10.6297C1.04778 10.9735 1.5141 11.1667 2.00033 11.1667V12.5417C2.00033 12.6632 2.04861 12.7798 2.13457 12.8658C2.22052 12.9517 2.3371 13 2.45866 13C2.58022 13 2.6968 12.9517 2.78275 12.8658C2.8687 12.7798 2.91699 12.6632 2.91699 12.5417V11.1667H12.0837V12.5417C12.0837 12.6632 12.1319 12.7798 12.2179 12.8658C12.3039 12.9517 12.4204 13 12.542 13C12.6636 13 12.7801 12.9517 12.8661 12.8658C12.952 12.7798 13.0003 12.6632 13.0003 12.5417V11.1667C13.4866 11.1667 13.9529 10.9735 14.2967 10.6297C14.6405 10.2859 14.8337 9.81956 14.8337 9.33333V7.04167C14.8338 6.51337 14.6513 6.00126 14.3173 5.592C13.9832 5.18275 13.518 4.90149 13.0003 4.79583V3.83333C13.0003 3.3471 12.8072 2.88079 12.4634 2.53697C12.1195 2.19315 11.6532 2 11.167 2H3.83366ZM12.0837 4.79583C11.1853 4.97825 10.4786 5.685 10.2962 6.58333H4.70449C4.61434 6.14307 4.39688 5.73898 4.07911 5.42121C3.76134 5.10344 3.35725 4.88599 2.91699 4.79583V3.83333C2.91699 3.59022 3.01357 3.35706 3.18548 3.18515C3.35739 3.01324 3.59054 2.91667 3.83366 2.91667H11.167C11.4101 2.91667 11.6433 3.01324 11.8152 3.18515C11.9871 3.35706 12.0837 3.59022 12.0837 3.83333V4.79583ZM13.0003 10.25H2.00033C1.75721 10.25 1.52405 10.1534 1.35214 9.98151C1.18024 9.80961 1.08366 9.57645 1.08366 9.33333V7.04167C1.08366 6.67699 1.22852 6.32726 1.48639 6.06939C1.74425 5.81153 2.09399 5.66667 2.45866 5.66667C2.82333 5.66667 3.17307 5.81153 3.43093 6.06939C3.68879 6.32726 3.83366 6.67699 3.83366 7.04167C3.83366 7.16322 3.88195 7.2798 3.9679 7.36576C4.05386 7.45171 4.17043 7.5 4.29199 7.5H10.7087C10.8302 7.5 10.9468 7.45171 11.0328 7.36576C11.1187 7.2798 11.167 7.16322 11.167 7.04167C11.167 6.67699 11.3119 6.32726 11.5697 6.06939C11.8276 5.81153 12.1773 5.66667 12.542 5.66667C12.9067 5.66667 13.2564 5.81153 13.5143 6.06939C13.7721 6.32726 13.917 6.67699 13.917 7.04167V9.33333C13.917 9.57645 13.8204 9.80961 13.6485 9.98151C13.4766 10.1534 13.2434 10.25 13.0003 10.25Z" fill="#607087"/>
</g>
</svg>
