<svg width="18" height="17" viewBox="0 0 18 17" fill="none" xmlns="http://www.w3.org/2000/svg">
<path d="M1.91669 8.64483C1.91669 7.02345 1.91669 6.21312 2.28502 5.54162C2.65194 4.86941 3.32415 4.45291 4.66785 3.61849L6.08452 2.73945C7.50473 1.85758 8.21519 1.41699 9.00002 1.41699C9.78485 1.41699 10.4946 1.85758 11.9155 2.73945L13.3322 3.61849C14.6759 4.45291 15.3481 4.86941 15.7157 5.54162C16.0834 6.21312 16.0834 7.02345 16.0834 8.64412V9.7222C16.0834 12.4847 16.0834 13.8667 15.2532 14.7252C14.4237 15.5837 13.0878 15.5837 10.4167 15.5837H7.58335C4.91223 15.5837 3.57631 15.5837 2.74685 14.7252C1.91669 13.8667 1.91669 12.4854 1.91669 9.7222V8.64483Z" stroke="#607087"/>
<path d="M9 10.625V12.75" stroke="#607087" stroke-linecap="round"/>
</svg>
