<svg width="15" height="15" viewBox="0 0 15 15" fill="none" xmlns="http://www.w3.org/2000/svg">
<g id="ant-design:message-outlined" clip-path="url(#clip0_155_12643)">
<path id="Vector" d="M6.79696 7.5C6.79696 7.68648 6.87104 7.86532 7.0029 7.99718C7.13476 8.12905 7.3136 8.20312 7.50008 8.20312C7.68656 8.20312 7.86541 8.12905 7.99727 7.99718C8.12913 7.86532 8.20321 7.68648 8.20321 7.5C8.20321 7.31352 8.12913 7.13468 7.99727 7.00282C7.86541 6.87095 7.68656 6.79688 7.50008 6.79688C7.3136 6.79688 7.13476 6.87095 7.0029 7.00282C6.87104 7.13468 6.79696 7.31352 6.79696 7.5ZM9.72665 7.5C9.72665 7.68648 9.80072 7.86532 9.93259 7.99718C10.0644 8.12905 10.2433 8.20312 10.4298 8.20312C10.6163 8.20312 10.7951 8.12905 10.927 7.99718C11.0588 7.86532 11.1329 7.68648 11.1329 7.5C11.1329 7.31352 11.0588 7.13468 10.927 7.00282C10.7951 6.87095 10.6163 6.79688 10.4298 6.79688C10.2433 6.79688 10.0644 6.87095 9.93259 7.00282C9.80072 7.13468 9.72665 7.31352 9.72665 7.5ZM3.86727 7.5C3.86727 7.68648 3.94135 7.86532 4.07321 7.99718C4.20507 8.12905 4.38392 8.20312 4.5704 8.20312C4.75688 8.20312 4.93572 8.12905 5.06758 7.99718C5.19944 7.86532 5.27352 7.68648 5.27352 7.5C5.27352 7.31352 5.19944 7.13468 5.06758 7.00282C4.93572 6.87095 4.75688 6.79688 4.5704 6.79688C4.38392 6.79688 4.20507 6.87095 4.07321 7.00282C3.94135 7.13468 3.86727 7.31352 3.86727 7.5ZM13.5528 4.95703C13.2218 4.17041 12.7472 3.46436 12.1422 2.85791C11.5414 2.25498 10.8283 1.77572 10.0431 1.44727C9.23739 1.10889 8.38192 0.9375 7.50008 0.9375H7.47079C6.58309 0.941895 5.72323 1.11768 4.91463 1.46338C4.13615 1.7952 3.42967 2.27531 2.83456 2.87695C2.23543 3.48193 1.76522 4.18506 1.44002 4.96875C1.10311 5.78027 0.933189 6.64307 0.937583 7.53076C0.942554 8.54805 1.18323 9.55035 1.64071 10.459V12.6855C1.64071 12.8643 1.7117 13.0356 1.83807 13.162C1.96444 13.2884 2.13583 13.3594 2.31454 13.3594H4.54256C5.4512 13.8169 6.4535 14.0575 7.47079 14.0625H7.50155C8.37899 14.0625 9.23006 13.8926 10.0313 13.5601C10.8126 13.2355 11.5231 12.7619 12.1231 12.1655C12.7281 11.5664 13.2042 10.8662 13.5367 10.0854C13.8824 9.27686 14.0582 8.41699 14.0626 7.5293C14.067 6.63721 13.8941 5.77148 13.5528 4.95703ZM11.3394 11.373C10.3126 12.3896 8.95028 12.9492 7.50008 12.9492H7.47518C6.59188 12.9448 5.71444 12.7251 4.93954 12.312L4.81649 12.2461H2.75399V10.1836L2.68807 10.0605C2.27499 9.28564 2.05526 8.4082 2.05086 7.5249C2.045 6.06445 2.60311 4.69336 3.62704 3.66064C4.6495 2.62793 6.0162 2.05664 7.47664 2.05078H7.50155C8.23397 2.05078 8.94442 2.19287 9.61385 2.47412C10.2672 2.74805 10.8531 3.14209 11.357 3.646C11.8595 4.14844 12.255 4.73584 12.5289 5.38916C12.8131 6.06592 12.9552 6.78369 12.9522 7.5249C12.9434 8.98389 12.3707 10.3506 11.3394 11.373Z" fill="url(#paint0_linear_155_12643)"/>
</g>
<defs>
<linearGradient id="paint0_linear_155_12643" x1="-2.80317" y1="4.15313" x2="14.0626" y2="10.9783" gradientUnits="userSpaceOnUse">
<stop stop-color="#3456A3"/>
<stop offset="1" stop-color="#182848"/>
</linearGradient>
<clipPath id="clip0_155_12643">
<rect width="15" height="15" fill="white"/>
</clipPath>
</defs>
</svg>
