<svg width="15" height="15" viewBox="0 0 15 15" fill="none" xmlns="http://www.w3.org/2000/svg">
<g id="fluent:call-20-regular">
<path id="Vector" d="M5.24001 1.54987L4.70226 1.71187C4.22344 1.85627 3.79584 2.13444 3.46977 2.51365C3.14371 2.89286 2.93276 3.35732 2.86176 3.85237C2.63901 5.40337 3.13701 7.21687 4.33776 9.29662C5.53551 11.3711 6.85401 12.7076 8.30526 13.2926C8.77155 13.4806 9.28201 13.5306 9.77593 13.4369C10.2699 13.3432 10.7265 13.1096 11.0915 12.7639L11.498 12.3784C11.762 12.1286 11.9263 11.7914 11.9603 11.4296C11.9944 11.0677 11.8959 10.7058 11.6833 10.4111L10.6663 9.00112C10.5288 8.81077 10.3351 8.66821 10.1126 8.59343C9.88996 8.51865 9.64954 8.51539 9.42501 8.58412L7.88676 9.05437L7.84701 9.06187C7.67751 9.08662 7.28601 8.71987 6.79851 7.87537C6.28851 6.99187 6.18351 6.47512 6.32376 6.34162L7.10601 5.61187C7.39207 5.34522 7.58747 4.9957 7.66481 4.61236C7.74216 4.22902 7.69755 3.83108 7.53726 3.47437L7.04076 2.37112C6.89146 2.03913 6.62653 1.77276 6.29535 1.62166C5.96418 1.47056 5.5886 1.44504 5.24001 1.54987ZM6.35826 2.67862L6.85326 3.78187C6.94966 3.9958 6.97662 4.23455 6.93034 4.46458C6.88406 4.69461 6.76688 4.90437 6.59526 5.06437L5.81076 5.79487C5.30826 6.27037 5.47476 7.08187 6.14976 8.25037C6.78426 9.34987 7.36326 9.89287 7.98576 9.79837L8.07876 9.77887L9.64476 9.30112C9.71961 9.27813 9.79979 9.27915 9.87403 9.30403C9.94828 9.32891 10.0129 9.37642 10.0588 9.43987L11.0758 10.8499C11.1822 10.9972 11.2316 11.1782 11.2146 11.3592C11.1977 11.5402 11.1155 11.7089 10.9835 11.8339L10.5763 12.2194C10.3155 12.4661 9.98941 12.6329 9.6367 12.6997C9.28398 12.7666 8.91948 12.7308 8.58651 12.5966C7.31301 12.0836 6.10926 10.8634 4.98801 8.92162C3.86376 6.97537 3.40851 5.32012 3.60426 3.95887C3.65493 3.6052 3.8056 3.27336 4.03852 3.00243C4.27145 2.73151 4.57693 2.53277 4.91901 2.42962L5.45676 2.26762C5.6311 2.21523 5.81855 2.22805 5.98414 2.30367C6.14974 2.37929 6.28217 2.51256 6.35676 2.67862" fill="url(#paint0_linear_155_12646)"/>
</g>
<defs>
<linearGradient id="paint0_linear_155_12646" x1="0.200349" y1="4.42549" x2="12.7011" y2="8.28673" gradientUnits="userSpaceOnUse">
<stop stop-color="#3456A3"/>
<stop offset="1" stop-color="#182848"/>
</linearGradient>
</defs>
</svg>
