<svg width="18" height="19" viewBox="0 0 18 19" fill="none" xmlns="http://www.w3.org/2000/svg">
<g id="solar:share-outline">
<path id="Vector" fill-rule="evenodd" clip-rule="evenodd" d="M12.3752 2.28711C12.0186 2.28699 11.6663 2.36512 11.3431 2.516C11.02 2.66688 10.7339 2.88682 10.505 3.16032C10.2762 3.43381 10.1101 3.75419 10.0185 4.09886C9.927 4.44353 9.91219 4.80409 9.97518 5.15511L6.42768 7.63911C6.40993 7.65138 6.39291 7.66465 6.37668 7.67886C6.01678 7.39752 5.58506 7.22298 5.13076 7.17514C4.67646 7.1273 4.21786 7.20808 3.80725 7.40828C3.39664 7.60848 3.05056 7.92003 2.80846 8.30742C2.56636 8.6948 2.43799 9.14242 2.43799 9.59923C2.43799 10.056 2.56636 10.5037 2.80846 10.8911C3.05056 11.2784 3.39664 11.59 3.80725 11.7902C4.21786 11.9904 4.67646 12.0712 5.13076 12.0233C5.58506 11.9755 6.01678 11.8009 6.37668 11.5196C6.39289 11.5341 6.40991 11.5476 6.42768 11.5601L9.97518 14.0441C9.86986 14.6312 9.98345 15.2365 10.2944 15.7454C10.6054 16.2544 11.0922 16.6316 11.6627 16.8058C12.2331 16.9799 12.8476 16.9389 13.3898 16.6904C13.932 16.4419 14.3643 16.0033 14.6049 15.4575C14.8454 14.9117 14.8775 14.2967 14.695 13.7289C14.5126 13.161 14.1283 12.6798 13.6148 12.3762C13.1014 12.0727 12.4945 11.968 11.909 12.0818C11.3236 12.1957 10.8002 12.5203 10.4379 12.9941L7.07868 10.6429C7.22868 10.3264 7.31268 9.97311 7.31268 9.59961C7.31268 9.22611 7.22868 8.87211 7.07868 8.55636L10.4387 6.20436C10.6904 6.53381 11.0219 6.79362 11.402 6.95922C11.7821 7.12482 12.1981 7.19074 12.6108 7.15074C13.0234 7.11074 13.4191 6.96615 13.7603 6.73063C14.1015 6.49512 14.377 6.17646 14.5607 5.80481C14.7444 5.43315 14.8303 5.02077 14.8103 4.60667C14.7902 4.19256 14.6648 3.79042 14.4461 3.43826C14.2273 3.0861 13.9223 2.79557 13.5599 2.59414C13.1975 2.39271 12.7898 2.28703 12.3752 2.28711ZM11.0627 4.72461C11.0627 4.37651 11.201 4.04267 11.4471 3.79653C11.6932 3.55039 12.0271 3.41211 12.3752 3.41211C12.7233 3.41211 13.0571 3.55039 13.3033 3.79653C13.5494 4.04267 13.6877 4.37651 13.6877 4.72461C13.6877 5.07271 13.5494 5.40655 13.3033 5.65269C13.0571 5.89883 12.7233 6.03711 12.3752 6.03711C12.0271 6.03711 11.6932 5.89883 11.4471 5.65269C11.201 5.40655 11.0627 5.07271 11.0627 4.72461ZM4.87518 8.28711C4.52708 8.28711 4.19324 8.42539 3.9471 8.67153C3.70096 8.91767 3.56268 9.25151 3.56268 9.59961C3.56268 9.94771 3.70096 10.2815 3.9471 10.5277C4.19324 10.7738 4.52708 10.9121 4.87518 10.9121C5.22327 10.9121 5.55711 10.7738 5.80325 10.5277C6.0494 10.2815 6.18768 9.94771 6.18768 9.59961C6.18768 9.25151 6.0494 8.91767 5.80325 8.67153C5.55711 8.42539 5.22327 8.28711 4.87518 8.28711ZM12.3752 13.1621C12.0271 13.1621 11.6932 13.3004 11.4471 13.5465C11.201 13.7927 11.0627 14.1265 11.0627 14.4746C11.0627 14.8227 11.201 15.1565 11.4471 15.4027C11.6932 15.6488 12.0271 15.7871 12.3752 15.7871C12.7233 15.7871 13.0571 15.6488 13.3033 15.4027C13.5494 15.1565 13.6877 14.8227 13.6877 14.4746C13.6877 14.1265 13.5494 13.7927 13.3033 13.5465C13.0571 13.3004 12.7233 13.1621 12.3752 13.1621Z" fill="#181817"/>
</g>
</svg>
