<svg width="73" height="72" viewBox="0 0 73 72" fill="none" xmlns="http://www.w3.org/2000/svg">
<g clip-path="url(#clip0_468_8416)">
<rect x="0.5" width="72" height="72" rx="8" fill="#F8F9FD"/>
<path d="M36.5 33C39.8137 33 42.5 30.3137 42.5 27C42.5 23.6863 39.8137 21 36.5 21C33.1863 21 30.5 23.6863 30.5 27C30.5 30.3137 33.1863 33 36.5 33Z" stroke="url(#paint0_linear_468_8416)" stroke-width="1.18462"/>
<path d="M48.5 44.25C48.5 47.9775 48.5 51 36.5 51C24.5 51 24.5 47.9775 24.5 44.25C24.5 40.5225 29.873 37.5 36.5 37.5C43.127 37.5 48.5 40.5225 48.5 44.25Z" stroke="url(#paint1_linear_468_8416)" stroke-width="1.18462"/>
<rect x="52.5" y="52" width="20" height="20" rx="6" fill="#E2EBFF"/>
<path fill-rule="evenodd" clip-rule="evenodd" d="M57.2861 64.3577V60.072C57.2861 59.6931 57.4366 59.3297 57.7046 59.0618C57.9725 58.7939 58.3358 58.6434 58.7147 58.6434H60.1433L61.6283 57.2148H64.4283L65.7997 58.6434H67.2861C67.665 58.6434 68.0284 58.7939 68.2963 59.0618C68.5642 59.3297 68.7147 59.6931 68.7147 60.072V64.3577C68.7147 64.7366 68.5642 65.0999 68.2963 65.3679C68.0284 65.6358 67.665 65.7863 67.2861 65.7863H58.7147C58.3358 65.7863 57.9725 65.6358 57.7046 65.3679C57.4366 65.0999 57.2861 64.7366 57.2861 64.3577Z" stroke="url(#paint2_linear_468_8416)" stroke-width="0.592308" stroke-linecap="round" stroke-linejoin="round"/>
<path fill-rule="evenodd" clip-rule="evenodd" d="M65.1431 62.2151C65.1431 61.6468 64.9174 61.1018 64.5155 60.6999C64.1136 60.298 63.5686 60.0723 63.0003 60.0723C62.432 60.0723 61.8869 60.298 61.485 60.6999C61.0832 61.1018 60.8574 61.6468 60.8574 62.2151C60.8574 62.7834 61.0832 63.3285 61.485 63.7304C61.8869 64.1322 62.432 64.358 63.0003 64.358C63.5686 64.358 64.1136 64.1322 64.5155 63.7304C64.9174 63.3285 65.1431 62.7834 65.1431 62.2151Z" stroke="url(#paint3_linear_468_8416)" stroke-width="0.592308" stroke-linecap="round" stroke-linejoin="round"/>
</g>
<defs>
<linearGradient id="paint0_linear_468_8416" x1="27.08" y1="23.94" x2="42.5" y2="30.18" gradientUnits="userSpaceOnUse">
<stop stop-color="#3456A3"/>
<stop offset="1" stop-color="#182848"/>
</linearGradient>
<linearGradient id="paint1_linear_468_8416" x1="17.66" y1="40.8075" x2="41.3101" y2="57.8217" gradientUnits="userSpaceOnUse">
<stop stop-color="#3456A3"/>
<stop offset="1" stop-color="#182848"/>
</linearGradient>
<linearGradient id="paint2_linear_468_8416" x1="54.029" y1="59.3148" x2="67.266" y2="66.457" gradientUnits="userSpaceOnUse">
<stop stop-color="#3456A3"/>
<stop offset="1" stop-color="#182848"/>
</linearGradient>
<linearGradient id="paint3_linear_468_8416" x1="59.636" y1="61.1223" x2="65.1431" y2="63.3508" gradientUnits="userSpaceOnUse">
<stop stop-color="#3456A3"/>
<stop offset="1" stop-color="#182848"/>
</linearGradient>
<clipPath id="clip0_468_8416">
<rect x="0.5" width="72" height="72" rx="8" fill="white"/>
</clipPath>
</defs>
</svg>
