<svg width="15" height="15" viewBox="0 0 15 15" fill="none" xmlns="http://www.w3.org/2000/svg">
<g id="material-symbols-light:bed-outline">
<path id="Vector" d="M1.875 11.25V8.125C1.875 7.94 1.92833 7.74292 2.035 7.53375C2.14167 7.32458 2.29667 7.1675 2.5 7.0625V5.625C2.5 5.2725 2.62021 4.97604 2.86063 4.73563C3.10104 4.49521 3.3975 4.375 3.75 4.375H6.5625C6.77792 4.375 6.96188 4.41937 7.11438 4.50812C7.26646 4.59646 7.395 4.71875 7.5 4.875C7.605 4.71875 7.73354 4.59646 7.88562 4.50812C8.03812 4.41937 8.22208 4.375 8.4375 4.375H11.25C11.6025 4.375 11.899 4.49521 12.1394 4.73563C12.3798 4.97604 12.5 5.2725 12.5 5.625V7.0625C12.7033 7.1675 12.8583 7.32458 12.965 7.53375C13.0717 7.74292 13.125 7.94 13.125 8.125V11.25H12.5V10H2.5V11.25H1.875ZM7.8125 6.875H11.875V5.625C11.875 5.44792 11.815 5.29958 11.695 5.18C11.575 5.06042 11.4267 5.00042 11.25 5H8.4375C8.26042 5 8.11208 5.06 7.9925 5.18C7.87292 5.3 7.81292 5.44833 7.8125 5.625V6.875ZM3.125 6.875H7.1875V5.625C7.1875 5.44792 7.1275 5.29958 7.0075 5.18C6.8875 5.06042 6.73917 5.00042 6.5625 5H3.75C3.57292 5 3.42458 5.06 3.305 5.18C3.18542 5.3 3.12542 5.44833 3.125 5.625V6.875ZM2.5 9.375H12.5V8.125C12.5 7.94792 12.44 7.79958 12.32 7.68C12.2 7.56042 12.0517 7.50042 11.875 7.5H3.125C2.94792 7.5 2.79958 7.56 2.68 7.68C2.56042 7.8 2.50042 7.94833 2.5 8.125V9.375Z" fill="url(#paint0_linear_155_12596)"/>
</g>
<defs>
<linearGradient id="paint0_linear_155_12596" x1="-1.33125" y1="6.05938" x2="10.364" y2="13.8038" gradientUnits="userSpaceOnUse">
<stop stop-color="#3456A3"/>
<stop offset="1" stop-color="#182848"/>
</linearGradient>
</defs>
</svg>
