<svg width="17" height="17" viewBox="0 0 17 17" fill="none" xmlns="http://www.w3.org/2000/svg">
<g id="solar:users-group-two-rounded-bold" clip-path="url(#clip0_479_5499)">
<path id="Vector" d="M11.4753 4.67497C11.4753 5.06562 11.3984 5.45245 11.2489 5.81336C11.0994 6.17428 10.8803 6.50222 10.6041 6.77845C10.3278 7.05468 9.99988 7.2738 9.63897 7.4233C9.27805 7.57279 8.89122 7.64974 8.50057 7.64974C8.10992 7.64974 7.72309 7.57279 7.36217 7.4233C7.00126 7.2738 6.67332 7.05468 6.39709 6.77845C6.12086 6.50222 5.90173 6.17428 5.75224 5.81336C5.60274 5.45245 5.5258 5.06562 5.5258 4.67497C5.5258 3.88601 5.83921 3.12936 6.39709 2.57149C6.95497 2.01361 7.71161 1.7002 8.50057 1.7002C9.28953 1.7002 10.0462 2.01361 10.6041 2.57149C11.1619 3.12936 11.4753 3.88601 11.4753 4.67497ZM13.6002 12.3244C13.6002 13.9673 11.3173 15.2992 8.50057 15.2992C5.68389 15.2992 3.40096 13.9673 3.40096 12.3244C3.40096 10.6815 5.68389 9.34961 8.50057 9.34961C11.3173 9.34961 13.6002 10.6815 13.6002 12.3244ZM4.35459 2.55013C4.50588 2.55013 4.65206 2.56458 4.79485 2.59263C4.43704 3.22823 4.24965 3.94556 4.2509 4.67497C4.2509 5.41271 4.43873 6.10711 4.76936 6.71141C4.63507 6.73691 4.49738 6.74966 4.35459 6.74966C3.15278 6.74966 2.1779 5.80963 2.1779 4.65032C2.1779 3.49016 3.15278 2.55013 4.35459 2.55013ZM2.93095 14.4373C2.44903 13.8602 2.12606 13.1522 2.12606 12.3244C2.12606 11.522 2.42948 10.8319 2.8876 10.265C1.26762 10.3908 0.0012207 11.2764 0.0012207 12.349C0.0012207 13.4327 1.29057 14.3251 2.93095 14.4373ZM12.7502 4.67497C12.7502 5.41271 12.5624 6.10711 12.2318 6.71141C12.3652 6.73691 12.5038 6.74966 12.6466 6.74966C13.8484 6.74966 14.8224 5.80963 14.8224 4.65032C14.8224 3.49016 13.8484 2.55013 12.6466 2.55013C12.4953 2.55013 12.3491 2.56458 12.2063 2.59263C12.5522 3.20798 12.7502 3.91853 12.7502 4.67497ZM14.0702 14.4373C15.7106 14.3251 16.9999 13.4327 16.9999 12.349C16.9999 11.2756 15.7327 10.3908 14.1135 10.265C14.5725 10.8319 14.8751 11.522 14.8751 12.3244C14.8751 13.1522 14.5521 13.8602 14.0702 14.4373Z" fill="url(#paint0_linear_479_5499)"/>
</g>
<defs>
<linearGradient id="paint0_linear_479_5499" x1="-4.84341" y1="5.03194" x2="15.3978" y2="15.2707" gradientUnits="userSpaceOnUse">
<stop stop-color="#3456A3"/>
<stop offset="1" stop-color="#182848"/>
</linearGradient>
<clipPath id="clip0_479_5499">
<rect width="17" height="17" fill="white"/>
</clipPath>
</defs>
</svg>
