<svg width="17" height="17" viewBox="0 0 17 17" fill="none" xmlns="http://www.w3.org/2000/svg">
<g id="solar:home-2-bold">
<path id="Vector" fill-rule="evenodd" clip-rule="evenodd" d="M1.78533 5.54162C1.41699 6.21241 1.41699 7.02345 1.41699 8.64412V9.7222C1.41699 12.4847 1.41699 13.8667 2.24716 14.7252C3.07662 15.5837 4.41253 15.5837 7.08366 15.5837H9.91699C12.5881 15.5837 13.924 15.5837 14.7535 14.7252C15.5837 13.8667 15.5837 12.4854 15.5837 9.7222V8.64483C15.5837 7.02345 15.5837 6.21312 15.2153 5.54162C14.8484 4.86941 14.1762 4.45291 12.8325 3.61849L11.4158 2.73945C9.99562 1.85758 9.28516 1.41699 8.50033 1.41699C7.71549 1.41699 7.00574 1.85758 5.58483 2.73945L4.16816 3.61849C2.82445 4.45291 2.15295 4.86941 1.78533 5.54162ZM7.96908 12.7503C7.96908 12.8912 8.02505 13.0263 8.12468 13.126C8.2243 13.2256 8.35943 13.2816 8.50033 13.2816C8.64122 13.2816 8.77635 13.2256 8.87598 13.126C8.97561 13.0263 9.03158 12.8912 9.03158 12.7503V10.6253C9.03158 10.4844 8.97561 10.3493 8.87598 10.2497C8.77635 10.15 8.64122 10.0941 8.50033 10.0941C8.35943 10.0941 8.2243 10.15 8.12468 10.2497C8.02505 10.3493 7.96908 10.4844 7.96908 10.6253V12.7503Z" fill="url(#paint0_linear_474_4144)"/>
</g>
<defs>
<linearGradient id="paint0_linear_474_4144" x1="-2.62051" y1="4.88783" x2="15.5837" y2="12.2545" gradientUnits="userSpaceOnUse">
<stop stop-color="#3456A3"/>
<stop offset="1" stop-color="#182848"/>
</linearGradient>
</defs>
</svg>
