<svg width="15" height="16" viewBox="0 0 15 16" fill="none" xmlns="http://www.w3.org/2000/svg">
<g id="fluent:location-28-regular">
<path id="Vector" d="M7.49958 1.70508C8.88486 1.70508 10.2134 2.25538 11.193 3.23492C12.1725 4.21446 12.7228 5.54301 12.7228 6.92829C12.7228 9.13544 11.1719 11.5408 8.1103 14.1701C7.94006 14.3163 7.72301 14.3966 7.49858 14.3964C7.27415 14.3962 7.05724 14.3155 6.88726 14.169L6.68476 13.9933C3.75869 11.4326 2.27637 9.08615 2.27637 6.92829C2.27637 5.54301 2.82667 4.21446 3.80621 3.23492C4.78575 2.25538 6.1143 1.70508 7.49958 1.70508ZM7.49958 2.50865C6.32742 2.50865 5.20327 2.97429 4.37442 3.80313C3.54558 4.63198 3.07994 5.75613 3.07994 6.92829C3.07994 8.80436 4.44494 10.966 7.21244 13.3874L7.41226 13.5604C7.43656 13.5813 7.46754 13.5928 7.49958 13.5928C7.53163 13.5928 7.56261 13.5813 7.5869 13.5604C10.4883 11.0683 11.9192 8.84883 11.9192 6.92829C11.9192 6.3479 11.8049 5.77318 11.5828 5.23697C11.3607 4.70075 11.0351 4.21353 10.6247 3.80313C10.2143 3.39273 9.72712 3.06718 9.19091 2.84507C8.65469 2.62297 8.07998 2.50865 7.49958 2.50865ZM7.49958 4.91936C8.03238 4.91936 8.54336 5.13102 8.92011 5.50777C9.29686 5.88451 9.50851 6.39549 9.50851 6.92829C9.50851 7.46109 9.29686 7.97207 8.92011 8.34882C8.54336 8.72557 8.03238 8.93722 7.49958 8.93722C6.96678 8.93722 6.4558 8.72557 6.07905 8.34882C5.70231 7.97207 5.49065 7.46109 5.49065 6.92829C5.49065 6.39549 5.70231 5.88451 6.07905 5.50777C6.4558 5.13102 6.96678 4.91936 7.49958 4.91936ZM7.49958 5.72294C7.1799 5.72294 6.87331 5.84993 6.64727 6.07598C6.42122 6.30202 6.29422 6.60861 6.29422 6.92829C6.29422 7.24797 6.42122 7.55456 6.64727 7.78061C6.87331 8.00666 7.1799 8.13365 7.49958 8.13365C7.81926 8.13365 8.12585 8.00666 8.3519 7.78061C8.57795 7.55456 8.70494 7.24797 8.70494 6.92829C8.70494 6.60861 8.57795 6.30202 8.3519 6.07598C8.12585 5.84993 7.81926 5.72294 7.49958 5.72294Z" fill="#607087"/>
</g>
</svg>
