<svg width="25" height="25" viewBox="0 0 25 25" fill="none" xmlns="http://www.w3.org/2000/svg">
<g id="lets-icons:bell-pin-light">
<g id="Group">
<path id="Vector" fill-rule="evenodd" clip-rule="evenodd" d="M14.9414 4.25963C14.044 3.87929 13.0702 3.7139 12.0976 3.77665C11.125 3.8394 10.1806 4.12855 9.33954 4.62105C8.49851 5.11355 7.7842 5.79576 7.25359 6.61327C6.72298 7.43078 6.39074 8.36098 6.28337 9.32966L6.02437 11.6576L6.0182 11.7151C5.89391 12.7977 5.54151 13.8415 4.98426 14.7779L4.95343 14.8283L4.3604 15.818L4.34601 15.8427C4.08907 16.2713 3.87529 16.6269 3.73654 16.9208C3.59676 17.2179 3.48987 17.5395 3.54332 17.8797C3.60127 18.2476 3.79037 18.582 4.0757 18.8212C4.34087 19.0432 4.67182 19.1151 4.99762 19.148C5.32137 19.1809 5.73557 19.1809 6.23609 19.1809H18.7647C19.2652 19.1809 19.6794 19.1809 20.0032 19.148C20.329 19.1151 20.661 19.0432 20.9251 18.8212C21.2104 18.582 21.3995 18.2476 21.4575 17.8797C21.512 17.5385 21.404 17.2179 21.2643 16.9208C21.1255 16.6269 20.9128 16.2713 20.6548 15.8417L20.6404 15.818L20.0463 14.8283L20.0165 14.7789C19.4593 13.8426 19.1069 12.7987 18.9826 11.7162L18.9764 11.6576L18.9333 11.265C18.6105 11.3719 18.2724 11.4397 17.9209 11.4633L17.9548 11.7717L17.962 11.8333C18.1029 13.0601 18.5022 14.243 19.1337 15.3041L19.1645 15.3576L19.7596 16.3473C20.035 16.8057 20.22 17.1171 20.3351 17.3587C20.4492 17.6033 20.4482 17.6906 20.4431 17.7184C20.4238 17.8413 20.3606 17.953 20.2653 18.0329C20.2426 18.0514 20.1686 18.0987 19.9004 18.1254C19.6332 18.1521 19.2724 18.1531 18.737 18.1531H6.26384C5.7294 18.1531 5.36659 18.1531 5.10143 18.1254C4.83215 18.0987 4.75815 18.0514 4.73554 18.0329C4.64037 17.9533 4.57722 17.8419 4.55773 17.7194C4.55362 17.6906 4.55157 17.6033 4.66668 17.3597C4.77973 17.1171 4.96679 16.8057 5.24223 16.3473L5.83526 15.3576L5.86712 15.3041C6.49871 14.2427 6.89805 13.0594 7.03879 11.8323L7.04598 11.7706L7.30498 9.44272C7.3913 8.66219 7.65237 7.91114 8.0688 7.24536C8.48523 6.57958 9.04631 6.01618 9.71037 5.59701C10.3744 5.17784 11.1244 4.91367 11.9046 4.82413C12.6847 4.73459 13.475 4.82198 14.2168 5.0798C14.4209 4.7752 14.6642 4.49876 14.9403 4.25758M16.8047 5.48063C16.4829 5.62302 16.2032 5.84604 15.9928 6.12813C16.9416 6.97902 17.5459 8.14787 17.6917 9.41394C18.0566 9.40469 18.3978 9.30088 18.6907 9.12616C18.4918 7.73331 17.8279 6.44861 16.8068 5.48063" fill="#181817"/>
<path id="Vector_2" d="M9.52148 19.084C9.69723 19.8487 10.0847 20.5249 10.6233 21.0059C11.1618 21.489 11.8217 21.75 12.5 21.75C13.1783 21.75 13.8382 21.489 14.3767 21.007C14.9153 20.5239 15.3017 19.8487 15.4785 19.084" stroke="#181817" stroke-width="0.986667" stroke-linecap="round"/>
<path id="Vector_3" d="M17.6395 9.41678C18.7748 9.41678 19.6951 8.49647 19.6951 7.36122C19.6951 6.22597 18.7748 5.30566 17.6395 5.30566C16.5043 5.30566 15.584 6.22597 15.584 7.36122C15.584 8.49647 16.5043 9.41678 17.6395 9.41678Z" fill="url(#paint0_linear_155_4590)"/>
</g>
</g>
<defs>
<linearGradient id="paint0_linear_155_4590" x1="14.4123" y1="6.31289" x2="19.6951" y2="8.45066" gradientUnits="userSpaceOnUse">
<stop stop-color="#3456A3"/>
<stop offset="1" stop-color="#182848"/>
</linearGradient>
</defs>
</svg>
