<svg width="17" height="17" viewBox="0 0 17 17" fill="none" xmlns="http://www.w3.org/2000/svg">
<g id="mingcute:search-3-fill" clip-path="url(#clip0_479_1325)">
<g id="Group">
<path id="Vector" fill-rule="evenodd" clip-rule="evenodd" d="M1.41669 7.43731C1.41677 6.47723 1.64645 5.53109 2.08655 4.67783C2.52666 3.82456 3.16444 3.08892 3.94668 2.53227C4.72892 1.97562 5.63293 1.61411 6.5833 1.4779C7.53367 1.34168 8.50283 1.43472 9.40993 1.74924C10.317 2.06376 11.1358 2.59065 11.7978 3.28594C12.4599 3.98123 12.9461 4.82477 13.2158 5.74618C13.4856 6.66758 13.5311 7.64014 13.3485 8.5827C13.1659 9.52527 12.7606 10.4105 12.1664 11.1646L14.7532 13.7514C14.8822 13.885 14.9536 14.0639 14.952 14.2496C14.9504 14.4354 14.8759 14.613 14.7446 14.7444C14.6132 14.8757 14.4356 14.9502 14.2498 14.9518C14.0641 14.9534 13.8852 14.882 13.7516 14.753L11.1648 12.1661C10.277 12.866 9.21005 13.3017 8.08616 13.4235C6.96226 13.5453 5.82679 13.3482 4.80967 12.8548C3.79256 12.3614 2.9349 11.5916 2.33485 10.6335C1.7348 9.67545 1.41661 8.56779 1.41669 7.43731ZM7.43752 4.24981C7.24966 4.24981 7.06949 4.32444 6.93665 4.45728C6.80382 4.59012 6.72919 4.77029 6.72919 4.95815C6.72919 5.14601 6.80382 5.32618 6.93665 5.45901C7.06949 5.59185 7.24966 5.66648 7.43752 5.66648C7.90718 5.66648 8.35759 5.85305 8.68969 6.18515C9.02178 6.51724 9.20835 6.96766 9.20835 7.43731C9.20835 7.62518 9.28298 7.80534 9.41582 7.93818C9.54866 8.07102 9.72883 8.14565 9.91669 8.14565C10.1045 8.14565 10.2847 8.07102 10.4176 7.93818C10.5504 7.80534 10.625 7.62518 10.625 7.43731C10.625 6.59194 10.2892 5.78118 9.69142 5.18341C9.09365 4.58564 8.2829 4.24981 7.43752 4.24981Z" fill="url(#paint0_linear_479_1325)"/>
</g>
</g>
<defs>
<linearGradient id="paint0_linear_479_1325" x1="-2.44088" y1="4.73302" x2="14.9518" y2="11.7716" gradientUnits="userSpaceOnUse">
<stop stop-color="#3456A3"/>
<stop offset="1" stop-color="#182848"/>
</linearGradient>
<clipPath id="clip0_479_1325">
<rect width="17" height="17" fill="white"/>
</clipPath>
</defs>
</svg>
