<svg width="15" height="15" viewBox="0 0 15 15" fill="none" xmlns="http://www.w3.org/2000/svg">
<g id="fluent-emoji-high-contrast:triangular-ruler" clip-path="url(#clip0_474_4187)">
<g id="Group">
<path id="Vector" d="M4.6575 6.80718C4.14984 6.29906 3.28125 6.65906 3.28125 7.37718V10.7812C3.28125 11.0299 3.38002 11.2683 3.55584 11.4442C3.73165 11.62 3.97011 11.7187 4.21875 11.7187H7.62281C8.34094 11.7187 8.70094 10.8502 8.19281 10.3425L4.6575 6.80718ZM7.30594 10.7812H4.21875V7.69406L7.30594 10.7812Z" fill="#607087"/>
<path id="Vector_2" d="M1.93172 0.46875C1.7396 0.46875 1.54936 0.506591 1.37186 0.580112C1.19437 0.653633 1.03309 0.761394 0.897244 0.897244C0.622884 1.1716 0.46875 1.54372 0.46875 1.93172V12.9689C0.46875 13.3833 0.633354 13.7807 0.92635 14.0737C1.21935 14.3666 1.61673 14.5312 2.03109 14.5312H13.0687C13.3581 14.5313 13.641 14.4455 13.8816 14.2847C14.1222 14.124 14.3097 13.8955 14.4205 13.6281C14.5312 13.3608 14.5602 13.0666 14.5037 12.7828C14.4473 12.499 14.3079 12.2384 14.1033 12.0338L2.96625 0.897188C2.83039 0.761342 2.6691 0.653587 2.4916 0.580075C2.31409 0.506564 2.12384 0.468735 1.93172 0.46875ZM1.40625 1.93172C1.40619 1.82775 1.43697 1.72609 1.49471 1.63962C1.55244 1.55315 1.63453 1.48575 1.73059 1.44595C1.82664 1.40616 1.93235 1.39575 2.03432 1.41605C2.13629 1.43635 2.22995 1.48645 2.30344 1.56L2.66438 1.92094L2.175 2.40937C2.15164 2.43119 2.13292 2.45747 2.11993 2.48667C2.10695 2.51588 2.09998 2.54739 2.09943 2.57934C2.09888 2.61129 2.10477 2.64303 2.11675 2.67266C2.12873 2.70229 2.14654 2.7292 2.16914 2.7518C2.19174 2.77439 2.21865 2.79221 2.24828 2.80419C2.27791 2.81616 2.30964 2.82205 2.34159 2.82151C2.37355 2.82096 2.40506 2.81399 2.43426 2.801C2.46346 2.78802 2.48975 2.76929 2.51156 2.74594L3.00047 2.2575L3.9525 3.20906L3.58125 3.58125C3.55789 3.60306 3.53917 3.62935 3.52618 3.65855C3.5132 3.68775 3.50623 3.71927 3.50568 3.75122C3.50513 3.78317 3.51102 3.8149 3.523 3.84453C3.53498 3.87416 3.55279 3.90107 3.57539 3.92367C3.59799 3.94627 3.6249 3.96409 3.65453 3.97606C3.68416 3.98804 3.71589 3.99393 3.74784 3.99338C3.7798 3.99283 3.81131 3.98586 3.84051 3.97288C3.86971 3.9599 3.896 3.94117 3.91781 3.91781L4.28953 3.54656L5.24203 4.49813L4.75313 4.9875C4.72977 5.00931 4.71104 5.0356 4.69806 5.0648C4.68508 5.094 4.6781 5.12552 4.67756 5.15747C4.67701 5.18942 4.6829 5.22116 4.69488 5.25078C4.70685 5.28041 4.72467 5.30732 4.74727 5.32992C4.76986 5.35252 4.79678 5.37034 4.82641 5.38231C4.85603 5.39429 4.88777 5.40018 4.91972 5.39963C4.95167 5.39908 4.98319 5.39211 5.01239 5.37913C5.04159 5.36615 5.06788 5.34742 5.08969 5.32406L5.57859 4.83516L6.53109 5.78766L6.15938 6.15938C6.13602 6.18119 6.11729 6.20747 6.10431 6.23668C6.09133 6.26588 6.08435 6.29739 6.08381 6.32934C6.08326 6.36129 6.08915 6.39303 6.10113 6.42266C6.1131 6.45229 6.13092 6.4792 6.15352 6.5018C6.17611 6.52439 6.20303 6.54221 6.23266 6.55419C6.26228 6.56616 6.29402 6.57205 6.32597 6.57151C6.35792 6.57096 6.38944 6.56399 6.41864 6.551C6.44784 6.53802 6.47413 6.51929 6.49594 6.49594L6.86766 6.12422L7.81969 7.07672L7.33125 7.56562C7.30789 7.58744 7.28917 7.61372 7.27618 7.64293C7.2632 7.67213 7.25623 7.70364 7.25568 7.73559C7.25513 7.76754 7.26102 7.79928 7.273 7.82891C7.28498 7.85854 7.30279 7.88545 7.32539 7.90805C7.34799 7.93064 7.3749 7.94846 7.40453 7.96044C7.43416 7.97241 7.46589 7.9783 7.49784 7.97776C7.5298 7.97721 7.56131 7.97024 7.59051 7.95725C7.61971 7.94427 7.646 7.92554 7.66781 7.90219L8.15672 7.41328L9.10875 8.36578L8.7375 8.7375C8.71414 8.75931 8.69542 8.7856 8.68243 8.8148C8.66945 8.844 8.66248 8.87552 8.66193 8.90747C8.66138 8.93942 8.66727 8.97116 8.67925 9.00078C8.69123 9.03041 8.70905 9.05732 8.73164 9.07992C8.75424 9.10252 8.78115 9.12034 8.81078 9.13231C8.84041 9.14429 8.87214 9.15018 8.90409 9.14963C8.93605 9.14909 8.96756 9.14211 8.99676 9.12913C9.02596 9.11615 9.05225 9.09742 9.07406 9.07406L9.44578 8.70234L10.3978 9.65484L9.90937 10.1437C9.88602 10.1656 9.86729 10.1918 9.85431 10.2211C9.84132 10.2503 9.83435 10.2818 9.83381 10.3137C9.83326 10.3457 9.83915 10.3774 9.85113 10.407C9.8631 10.4367 9.88092 10.4636 9.90352 10.4862C9.92611 10.5088 9.95303 10.5266 9.98265 10.5386C10.0123 10.5505 10.044 10.5564 10.076 10.5559C10.1079 10.5553 10.1394 10.5484 10.1686 10.5354C10.1978 10.5224 10.2241 10.5037 10.2459 10.4803L10.7348 9.99141L11.6869 10.9439L11.3156 11.3156C11.2923 11.3374 11.2735 11.3637 11.2606 11.3929C11.2476 11.4221 11.2406 11.4536 11.2401 11.4856C11.2395 11.5175 11.2454 11.5493 11.2574 11.5789C11.2694 11.6085 11.2872 11.6354 11.3098 11.658C11.3324 11.6806 11.3593 11.6985 11.3889 11.7104C11.4185 11.7224 11.4503 11.7283 11.4822 11.7278C11.5142 11.7272 11.5457 11.7202 11.5749 11.7073C11.6041 11.6943 11.6304 11.6755 11.6522 11.6522L12.0239 11.2805L12.9759 12.233L12.4875 12.7219C12.4641 12.7437 12.4454 12.77 12.4324 12.7992C12.4194 12.8284 12.4125 12.8599 12.4119 12.8918C12.4114 12.9238 12.4173 12.9555 12.4293 12.9852C12.4412 13.0148 12.459 13.0417 12.4816 13.0643C12.5042 13.0869 12.5312 13.1047 12.5608 13.1167C12.5904 13.1287 12.6221 13.1346 12.6541 13.134C12.686 13.1335 12.7176 13.1265 12.7468 13.1135C12.776 13.1005 12.8023 13.0818 12.8241 13.0584L13.313 12.5695L13.4395 12.6961C13.5132 12.7695 13.5634 12.8632 13.5839 12.9652C13.6043 13.0672 13.5939 13.173 13.5542 13.2691C13.5144 13.3652 13.447 13.4474 13.3605 13.5052C13.274 13.563 13.1723 13.5938 13.0683 13.5938H2.03109C1.86537 13.5938 1.70644 13.5279 1.58926 13.4107C1.47208 13.2936 1.40625 13.1346 1.40625 12.9689V1.93172Z" fill="#607087"/>
</g>
</g>
<defs>
<clipPath id="clip0_474_4187">
<rect width="15" height="15" fill="white"/>
</clipPath>
</defs>
</svg>
